<svg width="28" height="34" viewBox="0 0 28 34" fill="none" xmlns="http://www.w3.org/2000/svg">
<path d="M22.6235 17.9593C22.6399 16.6864 22.978 15.4384 23.6064 14.3313C24.2347 13.2243 25.1329 12.2941 26.2173 11.6274C25.5284 10.6435 24.6196 9.83386 23.563 9.26266C22.5064 8.69147 21.3312 8.37451 20.1308 8.33695C17.5699 8.06815 15.0873 9.86932 13.7823 9.86932C12.4521 9.86932 10.4429 8.36364 8.27937 8.40815C6.87992 8.45336 5.51604 8.86032 4.32062 9.58936C3.12521 10.3184 2.13903 11.3447 1.45817 12.5682C-1.49118 17.6745 0.708765 25.1791 3.534 29.3067C4.94752 31.3278 6.59952 33.5855 8.76113 33.5055C10.8764 33.4177 11.6664 32.1566 14.2197 32.1566C16.7493 32.1566 17.4905 33.5055 19.696 33.4546C21.9658 33.4177 23.3958 31.4244 24.7598 29.3841C25.7754 27.944 26.5569 26.3523 27.0754 24.668C25.7567 24.1103 24.6314 23.1767 23.8397 21.9837C23.048 20.7907 22.6251 19.3911 22.6235 17.9593V17.9593Z" fill="white"/>
<path d="M18.4578 5.62215C19.6954 4.13648 20.3051 2.2269 20.1575 0.29895C18.2667 0.497536 16.5202 1.40119 15.2659 2.82986C14.6527 3.5278 14.183 4.33976 13.8837 5.21933C13.5844 6.09891 13.4614 7.02884 13.5218 7.95598C14.4675 7.96571 15.4031 7.76073 16.2581 7.35648C17.1131 6.95222 17.8652 6.35922 18.4578 5.62215Z" fill="white"/>
</svg>
