<?xml version="1.0" encoding="utf-8"?>
<!-- Generator: Adobe Illustrator 26.3.1, SVG Export Plug-In . SVG Version: 6.00 Build 0)  -->
<svg version="1.1" id="Слой_1" xmlns="http://www.w3.org/2000/svg" xmlns:xlink="http://www.w3.org/1999/xlink" x="0px" y="0px"
	 viewBox="0 0 56 56" style="enable-background:new 0 0 56 56;" xml:space="preserve">
<style type="text/css">
	.st0{fill:#FDFDFD;}
	.st1{fill:none;stroke:#8F96A0;stroke-width:1.5;stroke-linecap:round;stroke-linejoin:round;}
	.st2{fill:none;stroke:#F2F5F9;}
</style>
<path class="st0" d="M55.5,28L55.5,28c0,15.2-12.3,27.5-27.5,27.5l0,0C12.8,55.5,0.5,43.2,0.5,28l0,0C0.5,12.8,12.8,0.5,28,0.5l0,0
	C43.2,0.5,55.5,12.8,55.5,28z"/>
<path class="st1" d="M21,31.5l7-7l7,7"/>
<path class="st2" d="M55.5,28L55.5,28c0,15.2-12.3,27.5-27.5,27.5l0,0C12.8,55.5,0.5,43.2,0.5,28l0,0C0.5,12.8,12.8,0.5,28,0.5l0,0
	C43.2,0.5,55.5,12.8,55.5,28z"/>
</svg>
