<svg width="36" height="40" viewBox="0 0 36 40" fill="none" xmlns="http://www.w3.org/2000/svg">
<path d="M17.1166 19.4738L0.961914 36.6202C0.962521 36.6237 0.963735 36.6267 0.964342 36.6302C1.45976 38.492 3.16029 39.863 5.17855 39.863C5.98534 39.863 6.74281 39.6448 7.3924 39.2619L7.44399 39.2317L25.6282 28.7387L17.1166 19.4738Z" fill="#EB3131"/>
<path d="M33.4607 16.5541L33.4452 16.5434L25.5946 11.9924L16.75 19.8627L25.6254 28.7369L33.4346 24.2311C34.8037 23.492 35.7331 22.0486 35.7331 20.3842C35.7331 18.7318 34.8162 17.2956 33.4607 16.5541Z" fill="#F6B60B"/>
<path d="M0.961633 4.07714C0.864521 4.43525 0.813477 4.81034 0.813477 5.19985V35.4982C0.813477 35.887 0.863914 36.2633 0.96224 36.6202L17.6729 19.9125L0.961633 4.07714Z" fill="#5778C5"/>
<path d="M17.2364 20.3487L25.598 11.9895L7.43443 1.45857C6.77422 1.06314 6.0037 0.834934 5.17915 0.834934C3.16089 0.834934 1.4581 2.20831 0.962521 4.0724C0.961914 4.07423 0.961914 4.07544 0.961914 4.07711L17.2364 20.3487Z" fill="#3BAD49"/>
</svg>
