<svg width="26" height="30" viewBox="0 0 26 30" fill="none" xmlns="http://www.w3.org/2000/svg">
<g filter="url(#filter0_d_12_16382)">
<path d="M19.7584 6.27729C19.6183 6.20752 19.4818 6.13104 19.3496 6.04813C18.9651 5.80333 18.6125 5.51489 18.2995 5.18901C17.5165 4.32613 17.224 3.45076 17.1163 2.83787H17.1206C17.0306 2.32915 17.0678 2 17.0734 2H13.5067V15.2818C13.5067 15.4602 13.5067 15.6364 13.4989 15.8106C13.4989 15.8322 13.4967 15.8522 13.4954 15.8756C13.4954 15.8851 13.4954 15.8951 13.4932 15.9051C13.4932 15.9076 13.4932 15.9101 13.4932 15.9126C13.4556 16.3892 13.297 16.8495 13.0313 17.2532C12.7656 17.6568 12.401 17.9914 11.9695 18.2275C11.5197 18.4739 11.0111 18.6032 10.4937 18.6025C8.83188 18.6025 7.48504 17.2976 7.48504 15.686C7.48504 14.0744 8.83188 12.7695 10.4937 12.7695C10.8083 12.7692 11.1209 12.8169 11.42 12.9107L11.4243 9.41338C10.5163 9.30043 9.59391 9.36992 8.71522 9.61747C7.83653 9.86502 7.02065 10.2852 6.31905 10.8516C5.70428 11.366 5.18745 11.9798 4.7918 12.6653C4.64124 12.9153 4.07317 13.9198 4.00437 15.5502C3.96111 16.4755 4.24969 17.4342 4.38727 17.8305V17.8388C4.4738 18.0721 4.8091 18.8683 5.35554 19.5395C5.79617 20.078 6.31675 20.5509 6.90053 20.9432V20.9349L6.90918 20.9432C8.63589 22.0732 10.5504 21.999 10.5504 21.999C10.8818 21.9861 11.992 21.999 13.2527 21.4236C14.651 20.7857 15.4471 19.8354 15.4471 19.8354C15.9557 19.2675 16.3601 18.6204 16.6429 17.9217C16.9657 17.1047 17.0734 16.1247 17.0734 15.7331V8.68675C17.1167 8.71175 17.693 9.07881 17.693 9.07881C17.693 9.07881 18.5232 9.59129 19.8186 9.92502C20.7479 10.1625 22 10.2125 22 10.2125V6.80268C21.5613 6.84851 20.6705 6.71518 19.7584 6.27729Z" fill="#0F1113"/>
</g>
<defs>
<filter id="filter0_d_12_16382" x="0" y="2" width="26" height="28" filterUnits="userSpaceOnUse" color-interpolation-filters="sRGB">
<feFlood flood-opacity="0" result="BackgroundImageFix"/>
<feColorMatrix in="SourceAlpha" type="matrix" values="0 0 0 0 0 0 0 0 0 0 0 0 0 0 0 0 0 0 127 0" result="hardAlpha"/>
<feOffset dy="4"/>
<feGaussianBlur stdDeviation="2"/>
<feComposite in2="hardAlpha" operator="out"/>
<feColorMatrix type="matrix" values="0 0 0 0 0 0 0 0 0 0 0 0 0 0 0 0 0 0 0.25 0"/>
<feBlend mode="normal" in2="BackgroundImageFix" result="effect1_dropShadow_12_16382"/>
<feBlend mode="normal" in="SourceGraphic" in2="effect1_dropShadow_12_16382" result="shape"/>
</filter>
</defs>
</svg>
