<svg width="184" height="61" viewBox="0 0 184 61" fill="none" xmlns="http://www.w3.org/2000/svg">
<rect x="0.850586" width="182.488" height="61" rx="10" fill="#0F1113"/>
<path d="M38.6235 30.9593C38.6399 29.6865 38.978 28.4384 39.6064 27.3313C40.2347 26.2243 41.1329 25.2941 42.2173 24.6274C41.5284 23.6436 40.6196 22.8339 39.563 22.2627C38.5064 21.6915 37.3312 21.3745 36.1308 21.337C33.5699 21.0682 31.0873 22.8693 29.7823 22.8693C28.4521 22.8693 26.4429 21.3636 24.2794 21.4082C22.8799 21.4534 21.516 21.8603 20.3206 22.5894C19.1252 23.3184 18.139 24.3447 17.4582 25.5682C14.5088 30.6745 16.7088 38.1791 19.534 42.3067C20.9475 44.3278 22.5995 46.5855 24.7611 46.5055C26.8764 46.4177 27.6664 45.1566 30.2197 45.1566C32.7493 45.1566 33.4905 46.5055 35.696 46.4546C37.9658 46.4177 39.3958 44.4244 40.7598 42.3841C41.7754 40.944 42.5569 39.3523 43.0754 37.668C41.7567 37.1103 40.6314 36.1767 39.8397 34.9837C39.048 33.7907 38.6251 32.3911 38.6235 30.9593V30.9593Z" fill="white"/>
<path d="M34.4578 18.6221C35.6954 17.1365 36.3051 15.2269 36.1575 13.299C34.2667 13.4975 32.5202 14.4012 31.2659 15.8299C30.6527 16.5278 30.183 17.3398 29.8837 18.2193C29.5844 19.0989 29.4614 20.0288 29.5218 20.956C30.4675 20.9657 31.4031 20.7607 32.2581 20.3565C33.1131 19.9522 33.8652 19.3592 34.4578 18.6221Z" fill="white"/>
<path d="M65.3619 41.388H58.1435L56.41 46.5066H53.3525L60.1897 27.5691H63.3663L70.2035 46.5066H67.0939L65.3619 41.388ZM58.8911 39.026H64.6129L61.7922 30.719H61.7133L58.8911 39.026Z" fill="white"/>
<path d="M84.9696 39.6035C84.9696 43.8941 82.6732 46.6507 79.2077 46.6507C78.3298 46.6966 77.4567 46.4944 76.6884 46.0671C75.9202 45.6399 75.2877 45.005 74.8635 44.2351H74.7979V51.0737H71.9639V32.6993H74.7071V34.9957H74.7593C75.203 34.2295 75.8461 33.5978 76.6202 33.168C77.3944 32.7382 78.2705 32.5263 79.1555 32.5548C82.6597 32.5548 84.9696 35.3248 84.9696 39.6035ZM82.0566 39.6035C82.0566 36.8082 80.612 34.9704 78.4079 34.9704C76.2425 34.9704 74.786 36.8469 74.786 39.6035C74.786 42.3854 76.2425 44.2485 78.4079 44.2485C80.612 44.2485 82.0566 42.4241 82.0566 39.6035Z" fill="white"/>
<path d="M100.166 39.6035C100.166 43.894 97.8695 46.6507 94.404 46.6507C93.5261 46.6966 92.653 46.4944 91.8847 46.0671C91.1164 45.6399 90.484 45.005 90.0598 44.2351H89.9942V51.0737H87.1602V32.6993H89.9034V34.9957H89.9555C90.3992 34.2295 91.0423 33.5978 91.8165 33.168C92.5906 32.7382 93.4668 32.5263 94.3518 32.5548C97.856 32.5548 100.166 35.3248 100.166 39.6035ZM97.2529 39.6035C97.2529 36.8082 95.8083 34.9704 93.6042 34.9704C91.4388 34.9704 89.9823 36.8469 89.9823 39.6035C89.9823 42.3854 91.4388 44.2485 93.6042 44.2485C95.8083 44.2485 97.2529 42.4241 97.2529 39.6035H97.2529Z" fill="white"/>
<path d="M110.21 41.2302C110.42 43.1081 112.244 44.3412 114.737 44.3412C117.126 44.3412 118.844 43.1081 118.844 41.4148C118.844 39.9449 117.808 39.0647 115.354 38.4616L112.899 37.8703C109.422 37.0304 107.808 35.4041 107.808 32.7651C107.808 29.4977 110.655 27.2534 114.698 27.2534C118.7 27.2534 121.443 29.4977 121.536 32.7651H118.675C118.503 30.8753 116.941 29.7345 114.658 29.7345C112.375 29.7345 110.813 30.8887 110.813 32.5686C110.813 33.9074 111.811 34.6952 114.252 35.2983L116.338 35.8106C120.223 36.7295 121.838 38.2903 121.838 41.0603C121.838 44.6032 119.016 46.8222 114.527 46.8222C110.327 46.8222 107.492 44.6553 107.309 41.23L110.21 41.2302Z" fill="white"/>
<path d="M127.954 29.4322V32.6996H130.579V34.9439H127.954V42.5555C127.954 43.738 128.479 44.289 129.633 44.289C129.945 44.2836 130.256 44.2617 130.566 44.2235V46.4544C130.047 46.5513 129.519 46.5952 128.992 46.5854C126.196 46.5854 125.106 45.5355 125.106 42.8578V34.9439H123.099V32.6996H125.106V29.4322H127.954Z" fill="white"/>
<path d="M132.1 39.6038C132.1 35.2597 134.658 32.5299 138.648 32.5299C142.651 32.5299 145.198 35.2596 145.198 39.6038C145.198 43.9599 142.664 46.6778 138.648 46.6778C134.633 46.6778 132.1 43.9599 132.1 39.6038ZM142.31 39.6038C142.31 36.6238 140.944 34.865 138.648 34.865C136.351 34.865 134.987 36.6372 134.987 39.6038C134.987 42.5957 136.351 44.3412 138.648 44.3412C140.944 44.3412 142.31 42.5957 142.31 39.6038H142.31Z" fill="white"/>
<path d="M147.535 32.6992H150.238V35.0492H150.304C150.487 34.3153 150.917 33.6666 151.521 33.2124C152.126 32.7581 152.869 32.5259 153.625 32.5547C153.951 32.5536 154.277 32.589 154.596 32.6605V35.3113C154.183 35.1853 153.753 35.1275 153.322 35.1401C152.911 35.1234 152.5 35.196 152.119 35.3529C151.738 35.5098 151.396 35.7473 151.115 36.049C150.835 36.3508 150.623 36.7098 150.494 37.1012C150.365 37.4926 150.323 37.9072 150.369 38.3167V46.5061H147.535L147.535 32.6992Z" fill="white"/>
<path d="M167.662 42.4513C167.28 44.9577 164.84 46.6778 161.717 46.6778C157.7 46.6778 155.207 43.9867 155.207 39.6694C155.207 35.3386 157.713 32.5299 161.597 32.5299C165.417 32.5299 167.82 35.1539 167.82 39.3402V40.3112H158.068V40.4825C158.023 40.9906 158.087 41.5025 158.255 41.9842C158.423 42.4658 158.691 42.9062 159.042 43.2761C159.394 43.646 159.82 43.9369 160.292 44.1295C160.764 44.3221 161.272 44.412 161.782 44.3933C162.452 44.456 163.124 44.3009 163.698 43.951C164.273 43.6011 164.719 43.0751 164.971 42.4513L167.662 42.4513ZM158.081 38.3305H164.984C165.009 37.8736 164.94 37.4164 164.781 36.9876C164.621 36.5587 164.374 36.1675 164.056 35.8385C163.738 35.5094 163.356 35.2497 162.933 35.0755C162.51 34.9013 162.055 34.8165 161.597 34.8263C161.136 34.8235 160.678 34.9122 160.251 35.0872C159.824 35.2622 159.436 35.52 159.109 35.8458C158.782 36.1716 158.523 36.5589 158.347 36.9854C158.17 37.4118 158.08 37.869 158.081 38.3305V38.3305Z" fill="white"/>
<path d="M56.876 17.1614H58.0928C58.3022 17.1875 58.5148 17.1699 58.7171 17.1098C58.9194 17.0496 59.1071 16.9482 59.2683 16.8119C59.4295 16.6757 59.5607 16.5075 59.6536 16.318C59.7466 16.1285 59.7993 15.9218 59.8084 15.7109C59.8084 14.8717 59.1769 14.3296 58.1062 14.3296C57.8916 14.2996 57.6732 14.3129 57.4638 14.3688C57.2544 14.4246 57.0584 14.5218 56.8872 14.6547C56.7161 14.7875 56.5733 14.9533 56.4672 15.1423C56.3612 15.3312 56.2941 15.5395 56.2699 15.7548H54.934C54.957 15.364 55.0602 14.982 55.2372 14.6328C55.4142 14.2836 55.6612 13.9745 55.9628 13.7248C56.2644 13.4752 56.6142 13.2903 56.9904 13.1817C57.3666 13.0731 57.7611 13.0431 58.1493 13.0935C59.9409 13.0935 61.2024 14.0965 61.2024 15.5404C61.2066 16.0241 61.0447 16.4946 60.7439 16.8733C60.443 17.2521 60.0214 17.5162 59.5493 17.6216V17.7288C60.1089 17.7537 60.636 17.9991 61.0153 18.4114C61.3945 18.8237 61.5951 19.3694 61.5732 19.9292C61.5318 20.3316 61.4104 20.7218 61.2163 21.0767C61.0221 21.4316 60.7591 21.7442 60.4426 21.9962C60.1261 22.2482 59.7624 22.4344 59.373 22.544C58.9835 22.6536 58.5762 22.6843 58.1747 22.6345C57.7724 22.6893 57.3631 22.6626 56.9714 22.5559C56.5796 22.4492 56.2133 22.2647 55.8944 22.0135C55.5754 21.7622 55.3103 21.4493 55.1149 21.0934C54.9195 20.7375 54.7977 20.3459 54.7568 19.9419H56.1136C56.1955 20.8124 56.9952 21.3739 58.1747 21.3739C59.3542 21.3739 60.1241 20.7432 60.1241 19.8541C60.1241 18.9523 59.3988 18.3968 58.1315 18.3968H56.876V17.1614Z" fill="white"/>
<path d="M63.1143 20.4715C63.1143 19.2354 64.0361 18.5228 65.6683 18.4215L67.5284 18.3143V17.7216C67.5284 16.9963 67.0504 16.5868 66.1226 16.5868C65.366 16.5868 64.8433 16.8645 64.6914 17.35H63.3793C63.5178 16.1705 64.6288 15.414 66.1866 15.414C67.9082 15.414 68.8792 16.271 68.8792 17.7216V22.4135H67.5731V21.4485H67.4659C67.2482 21.7946 66.9426 22.0768 66.5802 22.2663C66.2179 22.4557 65.8117 22.5455 65.4033 22.5266C65.115 22.5566 64.8236 22.5259 64.548 22.4364C64.2723 22.3468 64.0185 22.2006 63.8028 22.0069C63.5871 21.8133 63.4144 21.5766 63.2958 21.3122C63.1773 21.0477 63.1154 20.7613 63.1143 20.4715V20.4715ZM67.5284 19.8847V19.3106L65.8515 19.4179C64.9058 19.4811 64.4769 19.8028 64.4769 20.4082C64.4769 21.0262 65.013 21.3859 65.7502 21.3859C65.9662 21.4078 66.1845 21.386 66.3919 21.3218C66.5993 21.2576 66.7917 21.1523 66.9576 21.0123C67.1235 20.8722 67.2595 20.7002 67.3576 20.5065C67.4556 20.3128 67.5137 20.1014 67.5284 19.8847V19.8847Z" fill="white"/>
<path d="M72.4763 16.6873V22.4135H71.1211V15.5465H75.6425V16.6872L72.4763 16.6873Z" fill="white"/>
<path d="M83.8551 18.9782C83.8551 21.1599 82.7516 22.5278 81.0181 22.5278C80.5926 22.5569 80.1676 22.4638 79.7932 22.2594C79.4188 22.0551 79.1106 21.748 78.9048 21.3744H78.7976V24.6977H77.4424V15.5477H78.747V16.6825H78.8483C79.0577 16.2959 79.3699 15.9746 79.7505 15.7542C80.131 15.5339 80.5651 15.423 81.0047 15.4338C82.7516 15.4337 83.8551 16.7957 83.8551 18.9782ZM82.4612 18.9782C82.4612 17.5276 81.7746 16.6512 80.6264 16.6512C79.4857 16.6512 78.7723 17.5462 78.7723 18.9841C78.7723 20.4153 79.4857 21.3111 80.6205 21.3111C81.7746 21.3111 82.4612 20.4347 82.4612 18.9782Z" fill="white"/>
<path d="M85.66 24.873V23.7062C85.8066 23.7248 85.9544 23.7333 86.1022 23.7315C86.391 23.7529 86.6774 23.6669 86.9066 23.49C87.1359 23.3131 87.2917 23.0579 87.3443 22.7731L87.4455 22.4388L84.96 15.5465H86.4358L88.1575 21.0009H88.2647L89.9803 15.5465H91.4174L88.8574 22.6972C88.2707 24.3681 87.6213 24.9043 86.2214 24.9043C86.1082 24.9043 85.7866 24.8916 85.66 24.873Z" fill="white"/>
<path d="M92.4736 20.4649H93.8229C93.9554 21.0704 94.5229 21.386 95.3166 21.386C96.2191 21.386 96.7731 20.9884 96.7731 20.3704C96.7731 19.7084 96.2757 19.3927 95.3166 19.3927H94.289V18.3398H95.2988C96.1178 18.3398 96.5348 18.0248 96.5348 17.4507C96.5348 16.9466 96.1313 16.5616 95.2988 16.5616C94.5407 16.5616 93.9867 16.8833 93.8988 17.4254H92.5928C92.6904 16.8025 93.0286 16.2428 93.5347 15.8667C94.0407 15.4906 94.6742 15.3281 95.2988 15.4142C96.931 15.4142 97.8648 16.1521 97.8648 17.3122C97.8724 17.6353 97.7689 17.9512 97.5715 18.2071C97.3742 18.463 97.095 18.6434 96.7806 18.7181V18.8253C97.1549 18.8736 97.4984 19.0576 97.746 19.3424C97.9937 19.6272 98.1281 19.993 98.1239 20.3704C98.1239 21.6758 97.0129 22.5395 95.3166 22.5395C93.8169 22.5395 92.5987 21.8522 92.4736 20.4649Z" fill="white"/>
<path d="M100.075 22.4135V15.5465H101.419V20.2697H101.526L104.69 15.5465H106.034V22.4135H104.69V17.665H104.589L101.419 22.4135L100.075 22.4135Z" fill="white"/>
<path d="M113.435 16.6884H111.272V22.4146H109.915V16.6884H107.753V15.5477H113.435V16.6884Z" fill="white"/>
<path d="M120.735 20.5595C120.55 21.187 120.151 21.7298 119.607 22.0929C119.063 22.456 118.408 22.6164 117.758 22.5461C117.306 22.5581 116.856 22.4714 116.44 22.2922C116.025 22.113 115.653 21.8454 115.352 21.5082C115.05 21.171 114.825 20.7721 114.693 20.3393C114.56 19.9064 114.524 19.45 114.586 19.0017C114.526 18.552 114.563 18.0946 114.695 17.6605C114.827 17.2264 115.05 16.8256 115.35 16.4854C115.651 16.1453 116.02 15.8735 116.435 15.6887C116.849 15.5039 117.298 15.4102 117.752 15.4141C119.663 15.4141 120.817 16.7195 120.817 18.8758V19.3487H115.968V19.4247C115.946 19.6767 115.978 19.9305 116.06 20.1696C116.143 20.4088 116.274 20.6281 116.447 20.8133C116.619 20.9986 116.828 21.1458 117.061 21.2454C117.293 21.3451 117.544 21.395 117.797 21.3919C118.121 21.4307 118.449 21.3722 118.74 21.224C119.03 21.0757 119.27 20.8444 119.429 20.5594L120.735 20.5595ZM115.968 18.3464H119.435C119.452 18.1161 119.421 17.8847 119.343 17.6671C119.266 17.4496 119.143 17.2506 118.984 17.0831C118.825 16.9156 118.633 16.7832 118.42 16.6944C118.206 16.6056 117.977 16.5624 117.746 16.5675C117.512 16.5643 117.279 16.6082 117.062 16.6965C116.844 16.7847 116.647 16.9157 116.481 17.0815C116.316 17.2473 116.185 17.4447 116.097 17.662C116.008 17.8792 115.965 18.112 115.968 18.3464H115.968Z" fill="white"/>
<path d="M126.48 15.5465H129.577C130.92 15.5465 131.708 16.2271 131.708 17.2926C131.71 17.6307 131.596 17.9593 131.385 18.2234C131.173 18.4874 130.878 18.6709 130.548 18.7432V18.8504C130.949 18.8757 131.325 19.0541 131.598 19.3487C131.871 19.6434 132.021 20.0317 132.016 20.4335C132.016 21.6316 131.115 22.4135 129.608 22.4135H126.48V15.5465ZM127.824 16.5868V18.3649H129.167C129.986 18.3649 130.378 18.0499 130.378 17.4691C130.378 16.9337 130.037 16.5867 129.318 16.5867L127.824 16.5868ZM127.824 19.3613V21.3732H129.431C130.232 21.3732 130.661 21.0196 130.661 20.3702C130.661 19.683 130.175 19.3613 129.261 19.3613L127.824 19.3613Z" fill="white"/>
</svg>
