<svg width="129" height="42" viewBox="0 0 129 42" fill="none" xmlns="http://www.w3.org/2000/svg">
<path d="M100.266 35.6742H103.098V16.7047H100.266V35.6742ZM125.769 23.5379L122.523 31.7621H122.426L119.058 23.5379H116.008L121.059 35.0327L118.179 41.4267H121.134L128.918 23.5379H125.769ZM109.712 33.5196C108.783 33.5196 107.49 33.056 107.49 31.9085C107.49 30.4444 109.102 29.8831 110.492 29.8831C111.738 29.8831 112.322 30.1515 113.079 30.518C112.859 32.2748 111.346 33.5196 109.712 33.5196V33.5196ZM110.053 23.1229C108.003 23.1229 105.88 24.0262 105.002 26.0273L107.515 27.0765C108.052 26.0273 109.052 25.6853 110.102 25.6853C111.566 25.6853 113.055 26.5644 113.079 28.1262V28.3212C112.566 28.0284 111.469 27.5892 110.126 27.5892C107.418 27.5892 104.659 29.0775 104.659 31.8598C104.659 34.398 106.88 36.0333 109.369 36.0333C111.273 36.0333 112.322 35.1792 112.982 34.1787H113.079V35.6427H115.812V28.3698C115.812 25.0025 113.299 23.1229 110.053 23.1229V23.1229ZM92.5546 25.8471H88.5274V19.3448H92.5546C94.6714 19.3448 95.8732 21.0974 95.8732 22.5959C95.8732 24.0659 94.6714 25.8471 92.5546 25.8471ZM92.4818 16.7047H85.6974V35.6742H88.5274V28.4872H92.4818C95.6198 28.4872 98.7046 26.2152 98.7046 22.5959C98.7046 18.9767 95.6198 16.7047 92.4818 16.7047ZM55.4857 33.5231C53.5296 33.5231 51.8918 31.8853 51.8918 29.6359C51.8918 27.3628 53.5296 25.7002 55.4857 25.7002C57.4169 25.7002 58.9325 27.3628 58.9325 29.6359C58.9325 31.8853 57.4169 33.5231 55.4857 33.5231V33.5231ZM58.7369 24.6001H58.639C58.0037 23.8424 56.7808 23.1579 55.2409 23.1579C52.014 23.1579 49.0563 25.9935 49.0563 29.6359C49.0563 33.254 52.014 36.0653 55.2409 36.0653C56.7808 36.0653 58.0037 35.3807 58.639 34.5989H58.7369V35.5277C58.7369 37.9972 57.4169 39.3172 55.2901 39.3172C53.5545 39.3172 52.4788 38.07 52.0383 37.019L49.5696 38.0457C50.2785 39.7569 52.161 41.8594 55.2901 41.8594C58.6147 41.8594 61.4261 39.9033 61.4261 35.1365V23.5491H58.7369V24.6001ZM63.3815 35.6742H66.2173V16.7041H63.3815V35.6742ZM70.3978 29.416C70.3243 26.9223 72.329 25.6515 73.7711 25.6515C74.8964 25.6515 75.8494 26.2134 76.1665 27.0208L70.3978 29.416ZM79.1983 27.265C78.6611 25.8222 77.0223 23.1579 73.6733 23.1579C70.3486 23.1579 67.5864 25.7736 67.5864 29.6116C67.5864 33.2297 70.3243 36.0653 73.991 36.0653C76.9495 36.0653 78.6611 34.2563 79.3698 33.2053L77.1695 31.7383C76.4366 32.8141 75.4336 33.5231 73.991 33.5231C72.5488 33.5231 71.5223 32.8628 70.8619 31.5676L79.4912 27.9982L79.1983 27.265ZM10.447 25.1381V27.876H16.9985C16.8029 29.416 16.2895 30.5404 15.5072 31.3228C14.5541 32.2765 13.0628 33.3275 10.447 33.3275C6.41331 33.3275 3.25997 30.0763 3.25997 26.0427C3.25997 22.0091 6.41331 18.7574 10.447 18.7574C12.6229 18.7574 14.2114 19.6132 15.385 20.7134L17.3162 18.7823C15.6785 17.2174 13.5025 16.0196 10.447 16.0196C4.92199 16.0196 0.277344 20.5178 0.277344 26.0427C0.277344 31.5676 4.92199 36.0653 10.447 36.0653C13.4297 36.0653 15.6785 35.088 17.4384 33.254C19.2474 31.445 19.8099 28.9027 19.8099 26.8495C19.8099 26.2134 19.7612 25.6272 19.6629 25.1381H10.447ZM27.2583 33.5231C25.3022 33.5231 23.6153 31.9096 23.6153 29.6116C23.6153 27.2892 25.3022 25.7002 27.2583 25.7002C29.2137 25.7002 30.9006 27.2892 30.9006 29.6116C30.9006 31.9096 29.2137 33.5231 27.2583 33.5231V33.5231ZM27.2583 23.1579C23.6888 23.1579 20.7796 25.8714 20.7796 29.6116C20.7796 33.3275 23.6888 36.0653 27.2583 36.0653C30.8271 36.0653 33.7363 33.3275 33.7363 29.6116C33.7363 25.8714 30.8271 23.1579 27.2583 23.1579ZM41.3903 33.5231C39.4349 33.5231 37.7479 31.9096 37.7479 29.6116C37.7479 27.2892 39.4349 25.7002 41.3903 25.7002C43.3458 25.7002 45.0327 27.2892 45.0327 29.6116C45.0327 31.9096 43.3458 33.5231 41.3903 33.5231ZM41.3903 23.1579C37.8209 23.1579 34.9123 25.8714 34.9123 29.6116C34.9123 33.3275 37.8209 36.0653 41.3903 36.0653C44.9592 36.0653 47.8684 33.3275 47.8684 29.6116C47.8684 25.8714 44.9592 23.1579 41.3903 23.1579Z" fill="white"/>
<path d="M4.00193 5.27546C4.01968 6.71578 3.73106 7.87752 3.13821 8.75959H7.74082V1.89208H4.00193V5.27546ZM1.90365 11.8103H0.785156V8.75959H1.67542C2.46372 8.08024 2.84899 6.91973 2.83306 5.27546V0.773596H8.91151V8.75959H9.92818V11.8103H8.80909V9.87807H1.90365V11.8103" fill="white"/>
<path d="M4.0023 5.27543L3.85056 5.27725L3.85177 5.39986C3.85117 6.76265 3.56664 7.85094 3.01233 8.67474L2.85362 8.91131H7.89294V1.74032H3.85056V5.27665V5.27725L4.0023 5.27543H4.15404V2.0438H7.58946V8.60782H3.13859V8.75957L3.26438 8.84378C3.86118 7.95579 4.15526 6.80347 4.15526 5.39986L4.15404 5.27361L4.0023 5.27543H4.15404H4.0023ZM1.90402 11.8103V11.6586H0.937272V8.91131H1.6758H1.7321L1.77473 8.87458C2.59504 8.16686 2.98578 6.98784 2.98578 5.37498L2.98518 5.27422V5.27543V0.925315H8.76015V8.91131H9.77682V11.6586H8.96121V9.87805V9.72631H1.75228V11.8103H1.90402V11.6586V11.8103H2.05576V10.0298H8.65773V11.8103V11.9621H9.92856H10.0803V8.60782H9.06363V0.621832H2.6817V5.27604V5.27665L2.6823 5.37498C2.68169 6.9452 2.30112 8.02226 1.57671 8.64394L1.6758 8.75957V8.60782H0.78553H0.633789V11.9621H1.90402H2.05576V11.8103H1.90402" fill="white"/>
<path d="M13.2401 7.93923C13.9146 8.62146 14.7386 8.96227 15.7136 8.96227C16.6886 8.96227 17.5137 8.62146 18.1864 7.93923C18.8611 7.257 19.1988 6.38494 19.1988 5.32579C19.1988 4.26663 18.8611 3.39458 18.1864 2.71235C17.5137 2.03012 16.6886 1.68931 15.7136 1.68931C14.7386 1.68931 13.9146 2.03012 13.2401 2.71235C12.5673 3.39458 12.2295 4.26663 12.2295 5.32579C12.2295 6.38494 12.5673 7.257 13.2401 7.93923ZM19.052 8.70142C18.1568 9.62189 17.0443 10.0814 15.7136 10.0814C14.3829 10.0814 13.2697 9.62189 12.3764 8.70142C11.4814 7.78202 11.0352 6.65656 11.0352 5.32579C11.0352 3.99502 11.4814 2.8694 12.3764 1.95015C13.2697 1.02953 14.3829 0.569607 15.7136 0.569607C17.0365 0.569607 18.1468 1.03196 19.0459 1.95607C19.9439 2.88017 20.3932 4.00336 20.3932 5.32579C20.3932 6.65656 19.9457 7.78202 19.052 8.70142Z" fill="white"/>
<path d="M13.2405 7.93936L13.1326 8.04603C13.8314 8.75558 14.7033 9.11596 15.714 9.11414C16.724 9.11596 17.5977 8.75558 18.2947 8.04603C18.9983 7.33588 19.3522 6.41709 19.351 5.32592C19.3522 4.23475 18.9983 3.31595 18.2947 2.60581C17.5977 1.89626 16.724 1.53588 15.714 1.5377C14.7033 1.53588 13.8314 1.89626 13.1326 2.60581C12.4308 3.31595 12.0769 4.23475 12.0782 5.32592C12.0769 6.41709 12.4308 7.33588 13.1326 8.04603L13.2405 7.93936L13.349 7.83268C12.7051 7.17762 12.3833 6.35366 12.3816 5.32592C12.3833 4.29818 12.7051 3.47422 13.349 2.81915H13.3484C13.998 2.16424 14.7738 1.843 15.714 1.84118C16.6535 1.843 17.4311 2.16424 18.0789 2.81915L18.0813 2.82158L18.0789 2.81915C18.7244 3.47422 19.0458 4.29818 19.0475 5.32592C19.0458 6.35366 18.7244 7.17762 18.0789 7.83268C17.4311 8.4876 16.6535 8.80884 15.714 8.81066C14.7738 8.80884 13.998 8.4876 13.3484 7.83268L13.2405 7.93936ZM19.0523 8.70156L18.9438 8.5961C18.0742 9.48758 17.0097 9.92793 15.714 9.92975C14.4177 9.92793 13.3537 9.48758 12.4853 8.5961C11.6175 7.70158 11.1889 6.62285 11.1873 5.32592C11.1889 4.02899 11.6175 2.95026 12.4853 2.05574C13.3537 1.16426 14.4177 0.723303 15.714 0.721482C17.002 0.723303 18.0636 1.16608 18.9379 2.06227C19.8092 2.96088 20.2402 4.03794 20.2418 5.32592C20.2402 6.62285 19.8104 7.70158 18.9438 8.5961L19.0523 8.70156L19.1613 8.80702C20.0813 7.86228 20.5465 6.69038 20.5453 5.32592C20.5465 3.9692 20.0801 2.79973 19.1554 1.85074C18.2306 0.898107 17.0726 0.41633 15.714 0.418C14.3484 0.41633 13.1865 0.895831 12.2678 1.84482V1.84421C11.346 2.78956 10.8826 3.96146 10.8838 5.32592C10.8826 6.69038 11.346 7.86228 12.2678 8.80762V8.80702C13.1865 9.75601 14.3484 10.2344 15.714 10.2332C17.0791 10.2344 18.2408 9.75601 19.1613 8.80702L19.0523 8.70156Z" fill="white"/>
<path d="M26.2818 10.0814C24.9423 10.0814 23.8191 9.62796 22.9121 8.72039C22.0035 7.81359 21.5518 6.6819 21.5518 5.32579C21.5518 3.96952 22.0035 2.83799 22.9121 1.93118C23.8191 1.02362 24.9423 0.569607 26.2818 0.569607C27.654 0.569607 28.7696 1.0658 29.6261 2.05743L28.8111 2.84633C28.1935 2.07458 27.3487 1.68931 26.2818 1.68931C25.289 1.68931 24.4514 2.0242 23.7698 2.69399C23.0869 3.36377 22.7461 4.24114 22.7461 5.32579C22.7461 6.41043 23.0869 7.28841 23.7698 7.95759C24.4514 8.62737 25.289 8.96227 26.2818 8.96227C27.3754 8.96227 28.3073 8.52176 29.0795 7.64045L29.8928 8.45363C29.4768 8.95392 28.9563 9.35042 28.3279 9.64207C27.7014 9.93493 27.0181 10.0814 26.2818 10.0814" fill="white"/>
<path d="M26.2822 10.0815V9.92975C24.9765 9.92793 23.9006 9.49228 23.0198 8.61324C22.1395 7.73299 21.7051 6.64835 21.7039 5.32592C21.7051 4.00349 22.1395 2.91885 23.0198 2.0386C23.9006 1.15895 24.9765 0.723305 26.2822 0.721484C27.6183 0.723912 28.6805 1.19689 29.5114 2.1565L29.6264 2.05756L29.521 1.94846L28.706 2.73797L28.8114 2.84647L28.93 2.75163C28.2863 1.94437 27.3848 1.53542 26.2822 1.5377C25.2549 1.53649 24.3712 1.88929 23.6641 2.58563C22.9498 3.28455 22.5929 4.21032 22.5948 5.32592C22.5929 6.44152 22.9498 7.36851 23.6641 8.06621C24.3712 8.76255 25.2549 9.11535 26.2822 9.11414C27.4172 9.11596 28.4007 8.64996 29.1937 7.74073L29.0799 7.64058L28.9726 7.74786L29.7859 8.56105L29.8932 8.45376L29.7764 8.35725C29.3746 8.83964 28.8743 9.22142 28.2643 9.50472C27.6579 9.78802 26.9989 9.92914 26.2822 9.92975V10.0815V10.2332C27.0385 10.2332 27.7452 10.0827 28.3923 9.77983C29.0397 9.47984 29.5791 9.06907 30.0099 8.55103L30.0982 8.44496L29.1873 7.5333L29.0723 7.41828L28.9656 7.54043C28.2151 8.39458 27.3344 8.80884 26.2822 8.81066C25.3232 8.80884 24.5331 8.4923 23.8768 7.84923H23.8764C23.2243 7.20903 22.8995 6.37976 22.8982 5.32592C22.8995 4.27208 23.2243 3.44403 23.8764 2.80261H23.8768C24.5331 2.15954 25.3232 1.843 26.2822 1.84118C27.313 1.84361 28.1007 2.20521 28.6929 2.94131L28.7972 3.0718L29.7319 2.16667L29.8351 2.06697L29.7415 1.95863C28.86 0.934375 27.6905 0.416332 26.2822 0.418001C24.9082 0.416788 23.7375 0.889309 22.8052 1.82403C21.8681 2.75694 21.3986 3.93658 21.4004 5.32592C21.3986 6.71526 21.8681 7.8949 22.8052 8.82841C23.7375 9.76253 24.9082 10.2344 26.2822 10.2332V10.0815" fill="white"/>
<path d="M34.6245 9.87815H33.454V1.89216H30.9111V0.773674H37.1674V1.89216H34.6245V9.87815Z" fill="white"/>
<path d="M34.6249 9.87812V9.72638H33.6061V1.74039H31.0632V0.925384H37.0161V1.74039H34.4732V9.87812H34.6249V9.72638V9.87812H34.7767V2.04387H37.3195V0.773642V0.621901H30.7598V1.89213V2.04387H33.3026V10.0299H34.6249H34.7767V9.87812H34.6249" fill="white"/>
<path d="M45.2 0.773548L41.755 8.45363C41.279 9.53904 40.5731 10.0814 39.6318 10.0814C39.352 10.0814 39.0508 10.0138 38.7279 9.87803L39.0331 8.79687C39.2287 8.90764 39.432 8.96227 39.6437 8.96227C39.9151 8.96227 40.1255 8.90946 40.2737 8.804C40.422 8.69793 40.5594 8.50401 40.6869 8.22481L41.0175 7.49933L37.9531 0.773548H39.3265L41.5772 5.99967H41.6275L43.826 0.773548H45.2" fill="white"/>
<path d="M45.1996 0.77367L45.0609 0.711455L41.6159 8.39214L41.6153 8.39336C41.1471 9.44538 40.5075 9.92443 39.6315 9.92974C39.3759 9.92974 39.0949 9.86813 38.7861 9.73824L38.7275 9.87814L38.8738 9.91957L39.1785 8.83842L39.0327 8.79699L38.9586 8.92916C39.1744 9.05131 39.4049 9.11473 39.6433 9.11413C39.9331 9.11413 40.1761 9.05905 40.3616 8.92734C40.5442 8.79517 40.6906 8.58 40.8246 8.28835L41.1554 7.56288L41.1838 7.49945L38.1887 0.925411H39.2266L41.4766 6.15153H41.6272H41.7279L43.9263 0.925411H45.1996V0.77367L45.0609 0.711455L45.1996 0.77367V0.621928H43.8256H43.7248L41.4867 5.94122L41.6272 5.99979V5.84805H41.5768V5.99979L41.7161 5.94L39.4263 0.621928H37.9528H37.7168L40.8501 7.49945L40.5484 8.1621C40.4281 8.42826 40.2988 8.60018 40.185 8.68015C40.0743 8.76027 39.8958 8.81125 39.6433 8.81064C39.4577 8.81064 39.2829 8.76376 39.1074 8.66482L38.9391 8.56998L38.5817 9.83672L38.5449 9.96585L38.6688 10.018C39.006 10.1596 39.3268 10.2332 39.6315 10.2332C40.6372 10.2379 41.4102 9.63217 41.8933 8.5149L41.8927 8.51597L45.4337 0.621928H45.1996V0.77367" fill="white"/>
<path d="M46.5244 9.87815V0.773674H53.1115V9.87815H51.941V1.89216H47.6933V9.87815H46.5244Z" fill="white"/>
<path d="M46.5248 9.87812H46.6765V0.925384H52.9597V9.72638H52.0931V1.74039H47.5419V9.72638H46.5248V9.87812H46.6765H46.5248V10.0299H47.6937H47.8454V2.04387H51.7896V10.0299H53.1119H53.2636V0.621901H46.373V10.0299H46.5248V9.87812" fill="white"/>
<path d="M55.1963 9.87815V0.773674H56.3658V4.67692H60.918V0.773674H62.0887V9.87815H60.918V5.77052H56.3658V9.87815H55.1963Z" fill="white"/>
<path d="M55.1967 9.87812H55.3484V0.925384H56.2144V4.82862H61.0701V0.925384H61.9373V9.72638H61.0701V5.61874H56.2144V9.72638H55.1967V9.87812H55.3484H55.1967V10.0299H56.3661H56.5179V5.92222H60.7666V10.0299H62.089H62.2408V0.621901H60.9184H60.7666V4.52514H56.5179V0.621901H55.1967H55.0449V10.0299H55.1967V9.87812Z" fill="white"/>
<path d="M65.8075 7.93923C66.4821 8.62146 67.3059 8.96227 68.281 8.96227C69.2561 8.96227 70.0813 8.62146 70.7539 7.93923C71.4284 7.257 71.7664 6.38494 71.7664 5.32579C71.7664 4.26663 71.4284 3.39458 70.7539 2.71235C70.0813 2.03012 69.2561 1.68931 68.281 1.68931C67.3059 1.68931 66.4821 2.03012 65.8075 2.71235C65.1354 3.39458 64.7969 4.26663 64.7969 5.32579C64.7969 6.38494 65.1354 7.257 65.8075 7.93923ZM71.6193 8.70142C70.725 9.62189 69.6118 10.0814 68.281 10.0814C66.9504 10.0814 65.8378 9.62189 64.9439 8.70142C64.049 7.78202 63.6025 6.65656 63.6025 5.32579C63.6025 3.99502 64.049 2.8694 64.9439 1.95015C65.8378 1.02953 66.9504 0.569607 68.281 0.569607C69.6047 0.569607 70.7142 1.03196 71.6134 1.95607C72.5114 2.88017 72.9607 4.00336 72.9607 5.32579C72.9607 6.65656 72.5132 7.78202 71.6193 8.70142Z" fill="white"/>
<path d="M65.8079 7.93936L65.7001 8.04603C66.3995 8.75558 67.2708 9.11596 68.2814 9.11414C69.292 9.11596 70.1651 8.75558 70.8628 8.04603C71.5658 7.33588 71.9197 6.41709 71.9185 5.32592C71.9197 4.23475 71.5658 3.31595 70.8628 2.60581C70.1651 1.89626 69.292 1.53588 68.2814 1.5377C67.2708 1.53588 66.3995 1.89626 65.7001 2.60581C64.9983 3.31595 64.6443 4.23475 64.6455 5.32592C64.6443 6.41709 64.9983 7.33588 65.7001 8.04603L65.8079 7.93936L65.9164 7.83268C65.2727 7.17762 64.9508 6.35366 64.949 5.32592C64.9508 4.29818 65.2727 3.47422 65.9164 2.81915C66.5655 2.16424 67.342 1.843 68.2814 1.84118C69.221 1.843 69.9987 2.16424 70.6464 2.81915L70.6511 2.82401L70.6464 2.81915C71.2919 3.47422 71.6138 4.29818 71.615 5.32592C71.6138 6.35366 71.2919 7.17762 70.6464 7.83268C69.9987 8.4876 69.221 8.80884 68.2814 8.81066C67.342 8.80884 66.5655 8.4876 65.9164 7.83268L65.8079 7.93936ZM71.6197 8.70156L71.5112 8.5961C70.6417 9.48758 69.5771 9.92793 68.2814 9.92975C66.9857 9.92793 65.9212 9.48758 65.0534 8.5961L65.0487 8.59139L65.0534 8.5961C64.185 7.70158 63.7565 6.62285 63.7547 5.32592C63.7565 4.02899 64.185 2.95026 65.0534 2.05574C65.9212 1.16426 66.9857 0.723303 68.2814 0.721482C69.5695 0.723303 70.6311 1.16608 71.5053 2.06227C72.3768 2.96088 72.8082 4.03794 72.8094 5.32592C72.8082 6.62285 72.3778 7.70158 71.5112 8.5961L71.6197 8.70156L71.7288 8.80702C72.6493 7.86228 73.1141 6.69038 73.1129 5.32592C73.1141 3.9692 72.6476 2.79973 71.7229 1.85074C70.7982 0.898107 69.6399 0.41633 68.2814 0.418C66.9157 0.41633 65.7546 0.895831 64.8352 1.84482V1.84421C63.9135 2.78956 63.45 3.96146 63.4512 5.32592C63.45 6.69038 63.9135 7.86228 64.8352 8.80762V8.80702C65.7546 9.75601 66.9157 10.2344 68.2814 10.2332C69.6471 10.2344 70.8084 9.75601 71.7288 8.80702L71.6197 8.70156" fill="white"/>
<path d="M78.9135 8.75967H81.267C81.7162 8.75967 82.0804 8.60262 82.3611 8.2879C82.6403 7.97547 82.7799 7.63163 82.7799 7.25819C82.7799 6.88536 82.6357 6.54455 82.3474 6.23515C82.0606 5.92575 81.6813 5.77052 81.2154 5.77052H78.9135V8.75967ZM78.9135 4.67692H81.0379C81.4795 4.67692 81.833 4.5317 82.1001 4.23823C82.3672 3.94598 82.5007 3.62656 82.5007 3.27862C82.5007 2.93128 82.3717 2.61232 82.1122 2.32553C81.8543 2.03677 81.5128 1.89216 81.0895 1.89216H78.9135V4.67692ZM77.7451 9.87815V0.773674H81.0379C81.7496 0.773674 82.3671 1.00963 82.8876 1.47897C83.4096 1.95028 83.6706 2.54116 83.6706 3.25313C83.6706 3.68513 83.5583 4.06692 83.3322 4.39771C83.1092 4.72836 82.8102 4.97858 82.437 5.14807V5.19845C82.8846 5.3508 83.2548 5.61392 83.5432 5.98675C83.8299 6.36019 83.9756 6.79295 83.9756 7.28429C83.9756 8.02995 83.7025 8.64875 83.1547 9.14024C82.6084 9.63218 81.962 9.87815 81.2154 9.87815H77.7451" fill="white"/>
<path d="M78.9129 8.75964V8.91138H81.2664C81.7505 8.9132 82.1678 8.73536 82.4728 8.38909C82.7732 8.05541 82.9325 7.67014 82.931 7.25816C82.9325 6.84573 82.7671 6.46212 82.4576 6.13148C82.1435 5.79052 81.7141 5.61692 81.2148 5.61874H78.7612V8.91138H78.9129V8.75964H79.0647V5.92223H81.2148C81.6488 5.9239 81.9751 6.06153 82.2361 6.3383C82.5031 6.62752 82.626 6.92569 82.6275 7.25816C82.626 7.59305 82.5062 7.89547 82.2467 8.18697C81.9933 8.46921 81.6807 8.60547 81.2664 8.6079H78.9129V8.75964H79.0647H78.9129ZM78.9129 4.67689V4.82863H81.0373C81.5107 4.8303 81.9174 4.66672 82.2118 4.34017V4.34078C82.4986 4.02774 82.6518 3.66614 82.6518 3.27859C82.6518 2.89332 82.5046 2.53293 82.2239 2.22353V2.22414C81.9402 1.90275 81.5456 1.73857 81.0889 1.74039H78.7612V4.82863H78.9129V4.67689H79.0647V2.04387H81.0889C81.4789 2.0463 81.7672 2.17073 81.9978 2.42626L81.9993 2.42732L81.9978 2.42687C82.2361 2.69241 82.3468 2.9698 82.3483 3.27859C82.3468 3.58617 82.233 3.86477 81.9872 4.13563V4.13623C81.7475 4.39647 81.4455 4.52332 81.0373 4.52515H78.9129V4.67689H79.0647H78.9129ZM77.7445 9.87812H77.8963V0.925388H81.0373C81.7156 0.926602 82.2892 1.14587 82.7854 1.59168C83.2785 2.03856 83.5167 2.57861 83.5183 3.2531C83.5183 3.65916 83.4136 4.0071 83.2072 4.31225C82.9978 4.62059 82.7231 4.85048 82.3726 5.00996L82.2846 5.05032V5.19842V5.30692L82.3863 5.34182C82.8096 5.48658 83.1511 5.72952 83.4227 6.07989L83.4242 6.08156L83.4227 6.07928C83.6897 6.42783 83.8233 6.82251 83.8233 7.28426C83.8218 7.99319 83.5699 8.5604 83.0524 9.02761C82.5304 9.49528 81.928 9.72517 81.2148 9.72638H77.7445V9.87812H77.8963H77.7445V10.0299H81.2148C81.9948 10.0311 82.6837 9.76902 83.2558 9.2528C83.8324 8.73764 84.1283 8.06724 84.1268 7.28426C84.1283 6.76333 83.9704 6.29263 83.6624 5.89431L83.6609 5.89249L83.6624 5.8937C83.3574 5.49902 82.9599 5.21557 82.4849 5.05503L82.4364 5.19842H82.5881V5.14804H82.4364L82.4986 5.28613C82.8946 5.10662 83.2193 4.83682 83.4576 4.48236V4.48296C83.7004 4.12683 83.8217 3.71121 83.8217 3.2531C83.8233 2.50441 83.541 1.86194 82.9887 1.36635L82.9857 1.36346L82.9887 1.36635C82.4424 0.872583 81.7824 0.620692 81.0373 0.621906H77.5928V10.0299H77.7445V9.87812" fill="white"/>
</svg>
