<svg width="79" height="12" viewBox="0 0 79 12" fill="none" xmlns="http://www.w3.org/2000/svg">
<path d="M2.87604 4.16143H4.09276C4.30222 4.18751 4.5148 4.16992 4.71712 4.10977C4.91944 4.04962 5.1071 3.94821 5.26828 3.81193C5.42947 3.67565 5.56067 3.50747 5.65363 3.31797C5.74659 3.12847 5.79928 2.92177 5.80839 2.71089C5.80839 1.8717 5.17695 1.32961 4.10617 1.32961C3.89158 1.29962 3.67316 1.31294 3.4638 1.36877C3.25445 1.42459 3.0584 1.5218 2.88723 1.65465C2.71607 1.78751 2.57325 1.95331 2.46723 2.14226C2.3612 2.33122 2.29411 2.53951 2.26991 2.75483H0.934011C0.957005 2.36397 1.06021 1.98203 1.23721 1.63279C1.41421 1.28355 1.6612 0.974481 1.96282 0.724832C2.26444 0.475184 2.61423 0.290297 2.99039 0.181685C3.36656 0.0730736 3.76105 0.0430629 4.14932 0.0935193C5.94089 0.0935193 7.20238 1.09653 7.20238 2.54037C7.20658 3.02406 7.04475 3.49457 6.7439 3.87334C6.44304 4.25211 6.02137 4.51623 5.54928 4.62161V4.72883C6.10895 4.75366 6.63603 4.99906 7.01528 5.41138C7.39454 5.82371 7.59512 6.36942 7.57318 6.92921C7.53176 7.33165 7.41042 7.72176 7.21628 8.0767C7.02214 8.43163 6.7591 8.74424 6.44258 8.99619C6.12605 9.24815 5.76241 9.43439 5.37298 9.54399C4.98355 9.65359 4.57616 9.68434 4.17469 9.63445C3.77237 9.6893 3.36313 9.66259 2.97136 9.5559C2.5796 9.44921 2.21332 9.26474 1.89437 9.01347C1.57542 8.7622 1.31033 8.44929 1.11489 8.09338C0.919459 7.73747 0.797688 7.34586 0.756836 6.94188H2.11356C2.19546 7.81235 2.9952 8.37386 4.17469 8.37386C5.35417 8.37386 6.12413 7.74316 6.12413 6.85407C6.12413 5.95233 5.39885 5.39683 4.1315 5.39683H2.87604V4.16143Z" fill="white"/>
<path d="M9.11426 7.47151C9.11426 6.23542 10.0361 5.52282 11.6683 5.42155L13.5284 5.31432V4.7216C13.5284 3.99633 13.0504 3.58679 12.1226 3.58679C11.366 3.58679 10.8433 3.86454 10.6914 4.35004H9.37935C9.51785 3.17054 10.6288 2.414 12.1866 2.414C13.9082 2.414 14.8792 3.27105 14.8792 4.7216V9.41351H13.5731V8.44847H13.4659C13.2482 8.79464 12.9426 9.07684 12.5802 9.26626C12.2179 9.45568 11.8117 9.54553 11.4033 9.52665C11.115 9.55663 10.8236 9.52588 10.548 9.43636C10.2723 9.34685 10.0185 9.20056 9.80279 9.00693C9.58713 8.8133 9.41443 8.57663 9.29584 8.31217C9.17725 8.04772 9.11539 7.76134 9.11426 7.47151ZM13.5284 6.88474V6.31064L11.8515 6.41786C10.9058 6.48115 10.4769 6.80283 10.4769 7.40821C10.4769 8.02625 11.013 8.3859 11.7502 8.3859C11.9662 8.40778 12.1845 8.38597 12.3919 8.32179C12.5993 8.25761 12.7917 8.15235 12.9576 8.0123C13.1235 7.87224 13.2595 7.70024 13.3576 7.50653C13.4556 7.31282 13.5137 7.10136 13.5284 6.88474Z" fill="white"/>
<path d="M18.4763 3.68728V9.41348H17.1211V2.54651H21.6425V3.68721L18.4763 3.68728Z" fill="white"/>
<path d="M29.8551 5.97817C29.8551 8.15993 28.7516 9.52782 27.0181 9.52782C26.5926 9.55689 26.1676 9.46376 25.7932 9.25942C25.4188 9.05507 25.1106 8.74801 24.9048 8.37439H24.7976V11.6977H23.4424V2.54767H24.747V3.68253H24.8483C25.0577 3.29586 25.3699 2.97459 25.7505 2.75422C26.131 2.53386 26.5651 2.42296 27.0047 2.43378C28.7516 2.43374 29.8551 3.79565 29.8551 5.97817ZM28.4612 5.97817C28.4612 4.52764 27.7746 3.65121 26.6264 3.65121C25.4857 3.65121 24.7723 4.54624 24.7723 5.98413C24.7723 7.41532 25.4857 8.3111 26.6205 8.3111C27.7746 8.31109 28.4612 7.43465 28.4612 5.97817Z" fill="white"/>
<path d="M31.66 11.873V10.7062C31.8066 10.7248 31.9544 10.7333 32.1022 10.7315C32.391 10.7529 32.6774 10.6669 32.9066 10.49C33.1359 10.3131 33.2917 10.0578 33.3443 9.77313L33.4455 9.43879L30.96 2.54651H32.4358L34.1575 8.00091H34.2647L35.9803 2.54651H37.4174L34.8574 9.69719C34.2707 11.3681 33.6213 11.9043 32.2214 11.9043C32.1082 11.9043 31.7866 11.8916 31.66 11.873Z" fill="white"/>
<path d="M38.4736 7.46493H39.8229C39.9554 8.07035 40.5229 8.38603 41.3166 8.38603C42.2191 8.38603 42.7731 7.9884 42.7731 7.37038C42.7731 6.70841 42.2757 6.39269 41.3166 6.39269H40.289V5.33978H41.2988C42.1178 5.33978 42.5348 5.02481 42.5348 4.45071C42.5348 3.94659 42.1313 3.56163 41.2988 3.56163C40.5407 3.56163 39.9867 3.88332 39.8988 4.42541H38.5928C38.6904 3.80251 39.0286 3.24281 39.5347 2.86669C40.0407 2.49057 40.6742 2.32808 41.2988 2.41416C42.931 2.41416 43.8648 3.15209 43.8648 4.31222C43.8724 4.63528 43.7689 4.95117 43.5715 5.20707C43.3742 5.46296 43.095 5.64336 42.7806 5.71809V5.82531C43.1549 5.87359 43.4984 6.0576 43.746 6.34241C43.9937 6.62723 44.1281 6.99303 44.1239 7.37041C44.1239 8.67581 43.0129 9.53951 41.3166 9.53951C39.8169 9.53946 38.5987 8.85218 38.4736 7.46493Z" fill="white"/>
<path d="M46.0752 9.41348V2.54651H47.4185V7.26971H47.5257L50.6904 2.54652H52.0337V9.41349H50.6904V4.66501H50.5891L47.4185 9.41351L46.0752 9.41348Z" fill="white"/>
<path d="M59.4345 3.68843H57.2721V9.41462H55.9154V3.68843H53.7529V2.54773H59.4345V3.68843Z" fill="white"/>
<path d="M66.7351 7.55947C66.5504 8.18704 66.1511 8.72978 65.607 9.0929C65.0629 9.45603 64.4084 9.61644 63.758 9.54613C63.3056 9.55807 62.856 9.47142 62.4405 9.29219C62.0249 9.11296 61.6533 8.84544 61.3515 8.5082C61.0497 8.17097 60.8249 7.77209 60.6927 7.33926C60.5605 6.90643 60.5241 6.45002 60.5859 6.00169C60.5257 5.55199 60.5628 5.0946 60.6947 4.66047C60.8265 4.22635 61.0502 3.82563 61.3504 3.48544C61.6506 3.14525 62.0204 2.87354 62.4348 2.6887C62.8491 2.50386 63.2984 2.4102 63.7521 2.41407C65.6628 2.41407 66.817 3.71947 66.817 5.87582V6.34872H61.968V6.42467C61.9465 6.67672 61.978 6.93048 62.0604 7.16963C62.1429 7.40879 62.2745 7.62805 62.4467 7.81332C62.6189 7.9986 62.828 8.14579 63.0605 8.24543C63.293 8.34508 63.5438 8.39498 63.7968 8.39192C64.1207 8.43065 64.4489 8.37219 64.7395 8.22395C65.0302 8.07571 65.2702 7.8444 65.429 7.55942L66.7351 7.55947ZM61.9679 5.34643H65.4349C65.452 5.11608 65.4208 4.88469 65.3432 4.66713C65.2656 4.44957 65.1434 4.25064 64.9843 4.08312C64.8253 3.9156 64.633 3.78319 64.4197 3.69439C64.2065 3.6056 63.977 3.56238 63.7461 3.56752C63.5117 3.56433 63.2789 3.60817 63.0617 3.69645C62.8445 3.78473 62.6472 3.91565 62.4814 4.08149C62.3156 4.24733 62.1848 4.44471 62.0966 4.66198C62.0084 4.87924 61.9647 5.11198 61.968 5.34643H61.9679Z" fill="white"/>
<path d="M72.4805 2.54651H75.5766C76.92 2.54651 77.7078 3.2271 77.7078 4.29263C77.7099 4.63074 77.5958 4.9593 77.3846 5.22335C77.1734 5.4874 76.8779 5.6709 76.5476 5.74317V5.85039C76.9487 5.87573 77.3247 6.05413 77.5979 6.34874C77.8712 6.64335 78.0209 7.03167 78.016 7.43348C78.016 8.63158 77.115 9.41344 75.6079 9.41344H72.4805V2.54651ZM73.8238 3.58676V5.36491H75.1671C75.9862 5.36491 76.3779 5.04993 76.3779 4.46912C76.3779 3.93374 76.0368 3.58674 75.3175 3.58674L73.8238 3.58676ZM73.8238 6.36125V8.37324H75.4308C76.232 8.37324 76.6609 8.01955 76.6609 7.37023C76.6609 6.68295 76.1754 6.36126 75.2609 6.36126L73.8238 6.36125Z" fill="white"/>
</svg>
