<svg width="152" height="39" viewBox="0 0 152 39" fill="none" xmlns="http://www.w3.org/2000/svg">
<path d="M22.6235 17.9593C22.6399 16.6865 22.978 15.4384 23.6064 14.3313C24.2347 13.2243 25.1329 12.2941 26.2173 11.6274C25.5284 10.6436 24.6196 9.83386 23.563 9.26267C22.5064 8.69148 21.3312 8.37452 20.1308 8.33696C17.5699 8.06816 15.0873 9.86932 13.7823 9.86932C12.4521 9.86932 10.4429 8.36364 8.27937 8.40816C6.87992 8.45337 5.51604 8.86032 4.32062 9.58936C3.12521 10.3184 2.13903 11.3447 1.45817 12.5682C-1.49118 17.6745 0.708765 25.1791 3.534 29.3067C4.94752 31.3278 6.59952 33.5855 8.76113 33.5055C10.8764 33.4177 11.6664 32.1566 14.2197 32.1566C16.7493 32.1566 17.4905 33.5055 19.696 33.4546C21.9658 33.4177 23.3958 31.4244 24.7598 29.3841C25.7754 27.944 26.5569 26.3523 27.0754 24.668C25.7567 24.1103 24.6314 23.1767 23.8397 21.9837C23.048 20.7907 22.6251 19.3911 22.6235 17.9593Z" fill="white"/>
<path d="M18.4578 5.62215C19.6954 4.13648 20.3051 2.22691 20.1575 0.298954C18.2667 0.49754 16.5202 1.40119 15.2659 2.82986C14.6527 3.5278 14.183 4.33976 13.8837 5.21934C13.5844 6.09891 13.4614 7.02885 13.5218 7.95598C14.4675 7.96572 15.4031 7.76074 16.2581 7.35648C17.1131 6.95222 17.8652 6.35922 18.4578 5.62215Z" fill="white"/>
<path d="M49.3619 28.388H42.1435L40.41 33.5066H37.3525L44.1897 14.5691H47.3663L54.2035 33.5066H51.0939L49.3619 28.388ZM42.8911 26.026H48.6129L45.7922 17.719H45.7133L42.8911 26.026Z" fill="white"/>
<path d="M68.9696 26.6035C68.9696 30.8941 66.6732 33.6507 63.2077 33.6507C62.3298 33.6966 61.4567 33.4944 60.6884 33.0671C59.9202 32.6399 59.2877 32.005 58.8635 31.2351H58.7979V38.0737H55.9639V19.6993H58.7071V21.9957H58.7593C59.203 21.2295 59.8461 20.5978 60.6202 20.168C61.3944 19.7382 62.2705 19.5263 63.1555 19.5548C66.6597 19.5548 68.9696 22.3248 68.9696 26.6035ZM66.0566 26.6035C66.0566 23.8082 64.612 21.9704 62.4079 21.9704C60.2425 21.9704 58.786 23.8469 58.786 26.6035C58.786 29.3854 60.2425 31.2485 62.4079 31.2485C64.612 31.2485 66.0566 29.4241 66.0566 26.6035Z" fill="white"/>
<path d="M84.1659 26.6035C84.1659 30.894 81.8695 33.6507 78.404 33.6507C77.5261 33.6966 76.653 33.4944 75.8847 33.0671C75.1164 32.6399 74.484 32.005 74.0598 31.2351H73.9942V38.0737H71.1602V19.6993H73.9034V21.9957H73.9555C74.3992 21.2295 75.0423 20.5978 75.8165 20.168C76.5906 19.7382 77.4668 19.5263 78.3518 19.5548C81.856 19.5548 84.1659 22.3248 84.1659 26.6035ZM81.2529 26.6035C81.2529 23.8082 79.8083 21.9704 77.6042 21.9704C75.4388 21.9704 73.9823 23.8469 73.9823 26.6035C73.9823 29.3854 75.4388 31.2485 77.6042 31.2485C79.8083 31.2485 81.2529 29.4241 81.2529 26.6035H81.2529Z" fill="white"/>
<path d="M94.2097 28.2302C94.4197 30.1081 96.2441 31.3412 98.7371 31.3412C101.126 31.3412 102.844 30.1081 102.844 28.4148C102.844 26.9449 101.808 26.0647 99.3536 25.4616L96.8993 24.8703C93.4219 24.0304 91.8075 22.4041 91.8075 19.7651C91.8075 16.4977 94.655 14.2534 98.6983 14.2534C102.7 14.2534 105.443 16.4977 105.536 19.7651H102.675C102.503 17.8753 100.941 16.7345 98.6581 16.7345C96.3751 16.7345 94.8128 17.8887 94.8128 19.5686C94.8128 20.9074 95.8106 21.6952 98.2515 22.2983L100.338 22.8106C104.223 23.7295 105.838 25.2903 105.838 28.0603C105.838 31.6032 103.016 33.8222 98.527 33.8222C94.3273 33.8222 91.4918 31.6553 91.3086 28.23L94.2097 28.2302Z" fill="white"/>
<path d="M111.954 16.4322V19.6996H114.579V21.9439H111.954V29.5555C111.954 30.738 112.479 31.289 113.633 31.289C113.945 31.2836 114.256 31.2617 114.566 31.2235V33.4544C114.047 33.5513 113.519 33.5952 112.992 33.5854C110.196 33.5854 109.106 32.5355 109.106 29.8578V21.9439H107.099V19.6996H109.106V16.4322H111.954Z" fill="white"/>
<path d="M116.1 26.6038C116.1 22.2597 118.658 19.5299 122.648 19.5299C126.651 19.5299 129.198 22.2596 129.198 26.6038C129.198 30.9599 126.664 33.6778 122.648 33.6778C118.633 33.6778 116.1 30.9599 116.1 26.6038ZM126.31 26.6038C126.31 23.6238 124.944 21.865 122.648 21.865C120.351 21.865 118.987 23.6372 118.987 26.6038C118.987 29.5957 120.351 31.3412 122.648 31.3412C124.944 31.3412 126.31 29.5957 126.31 26.6038H126.31Z" fill="white"/>
<path d="M131.535 19.6992H134.238V22.0492H134.304C134.487 21.3153 134.917 20.6666 135.521 20.2124C136.126 19.7581 136.869 19.5259 137.625 19.5547C137.951 19.5536 138.277 19.589 138.596 19.6605V22.3113C138.183 22.1853 137.753 22.1275 137.322 22.1401C136.911 22.1234 136.5 22.196 136.119 22.3529C135.738 22.5098 135.396 22.7473 135.115 23.049C134.835 23.3508 134.623 23.7098 134.494 24.1012C134.365 24.4926 134.323 24.9072 134.369 25.3167V33.5061H131.535L131.535 19.6992Z" fill="white"/>
<path d="M151.662 29.4513C151.28 31.9577 148.84 33.6778 145.717 33.6778C141.7 33.6778 139.207 30.9867 139.207 26.6694C139.207 22.3386 141.713 19.5299 145.597 19.5299C149.417 19.5299 151.82 22.1539 151.82 26.3402V27.3112H142.068V27.4825C142.023 27.9906 142.087 28.5025 142.255 28.9842C142.423 29.4658 142.691 29.9062 143.042 30.2761C143.394 30.646 143.82 30.9369 144.292 31.1295C144.764 31.3221 145.272 31.412 145.782 31.3933C146.452 31.456 147.124 31.3009 147.698 30.951C148.273 30.6011 148.719 30.0751 148.971 29.4513L151.662 29.4513ZM142.081 25.3305H148.984C149.009 24.8736 148.94 24.4164 148.781 23.9876C148.621 23.5587 148.374 23.1675 148.056 22.8385C147.738 22.5094 147.356 22.2497 146.933 22.0755C146.51 21.9013 146.055 21.8165 145.597 21.8263C145.136 21.8235 144.678 21.9122 144.251 22.0872C143.824 22.2622 143.436 22.52 143.109 22.8458C142.782 23.1716 142.523 23.5589 142.347 23.9854C142.17 24.4118 142.08 24.869 142.081 25.3305V25.3305Z" fill="white"/>
</svg>
